<?xml version="1.0" encoding="UTF-8"?>
<svg id="_레이어_1" data-name="레이어_1" xmlns="http://www.w3.org/2000/svg" viewBox="0 0 833.38 179.8">
  <defs>
    <style>
      .cls-1 {
        fill: #ff7a5a;
      }
    </style>
  </defs>
  <g>
    <g>
      <path d="M233.42,119.74c-3.87-1.25-6.95-2.87-9.24-4.84l3.68-8.48c2.19,1.81,4.87,3.28,8.04,4.4,3.17,1.12,6.36,1.68,9.56,1.68,3.79,0,6.61-.64,8.48-1.92,1.87-1.28,2.8-2.96,2.8-5.04,0-1.6-.53-2.88-1.6-3.84-1.07-.96-2.39-1.72-3.96-2.28-1.57-.56-3.85-1.21-6.84-1.96-4-.96-7.27-1.96-9.8-3s-4.71-2.65-6.52-4.84c-1.81-2.19-2.72-5.12-2.72-8.8,0-3.15.81-6,2.44-8.56,1.63-2.56,4.07-4.6,7.32-6.12,3.25-1.52,7.23-2.28,11.92-2.28,3.36,0,6.63.44,9.8,1.32,3.17.88,5.93,2.12,8.28,3.72l-3.36,8.56c-2.35-1.49-4.79-2.61-7.32-3.36-2.53-.75-5-1.12-7.4-1.12-3.73,0-6.51.68-8.32,2.04-1.81,1.36-2.72,3.11-2.72,5.24,0,1.55.53,2.81,1.6,3.8,1.07.99,2.41,1.76,4.04,2.32,1.63.56,3.85,1.19,6.68,1.88,4.11,1.01,7.4,2.03,9.88,3.04,2.48,1.01,4.63,2.6,6.44,4.76,1.81,2.16,2.72,5.05,2.72,8.68,0,3.09-.81,5.92-2.44,8.48-1.63,2.56-4.09,4.6-7.4,6.12-3.31,1.52-7.33,2.28-12.08,2.28-4.11,0-8.09-.63-11.96-1.88Z"/>
      <path d="M290.18,108.02l-5.12,12.72h-10.96l23.84-56h10.56l23.92,56h-11.2l-5.12-12.72h-25.92ZM303.22,75.86l-9.6,23.52h19.04l-9.44-23.52Z"/>
      <path d="M388.18,92.1v22.32c-2.77,2.29-6.01,4.07-9.72,5.32-3.71,1.25-7.48,1.88-11.32,1.88-5.44,0-10.36-1.24-14.76-3.72-4.4-2.48-7.84-5.92-10.32-10.32-2.48-4.4-3.72-9.35-3.72-14.84s1.25-10.51,3.76-14.88c2.51-4.37,5.96-7.8,10.36-10.28,4.4-2.48,9.37-3.72,14.92-3.72,4.53,0,8.64.79,12.32,2.36,3.68,1.57,6.77,3.88,9.28,6.92l-6.8,6.72c-3.89-4.27-8.67-6.4-14.32-6.4-3.63,0-6.87.83-9.72,2.48-2.85,1.65-5.07,3.93-6.64,6.84-1.57,2.91-2.36,6.23-2.36,9.96s.79,6.99,2.36,9.92c1.57,2.93,3.77,5.21,6.6,6.84,2.83,1.63,6.05,2.44,9.68,2.44,4.05,0,7.57-.99,10.56-2.96v-16.88h9.84Z"/>
      <path d="M414.18,108.02l-5.12,12.72h-10.96l23.84-56h10.56l23.92,56h-11.2l-5.12-12.72h-25.92ZM427.22,75.86l-9.6,23.52h19.04l-9.44-23.52Z"/>
      <path d="M478.25,106.49v14.24h-10.64v-56h10.64v28.08l25.44-28.08h11.92l-22.32,25.04,23.68,30.96h-12.48l-18.16-23.12-8.08,8.88Z"/>
    </g>
    <g>
      <path d="M549.82,119.74c-3.87-1.25-6.95-2.87-9.24-4.84l3.68-8.48c2.19,1.81,4.87,3.28,8.04,4.4,3.17,1.12,6.36,1.68,9.56,1.68,3.79,0,6.61-.64,8.48-1.92,1.87-1.28,2.8-2.96,2.8-5.04,0-1.6-.53-2.88-1.6-3.84-1.07-.96-2.39-1.72-3.96-2.28-1.57-.56-3.85-1.21-6.84-1.96-4-.96-7.27-1.96-9.8-3s-4.71-2.65-6.52-4.84c-1.81-2.19-2.72-5.12-2.72-8.8,0-3.15.81-6,2.44-8.56,1.63-2.56,4.07-4.6,7.32-6.12,3.25-1.52,7.23-2.28,11.92-2.28,3.36,0,6.63.44,9.8,1.32,3.17.88,5.93,2.12,8.28,3.72l-3.36,8.56c-2.35-1.49-4.79-2.61-7.32-3.36-2.53-.75-5-1.12-7.4-1.12-3.73,0-6.51.68-8.32,2.04-1.81,1.36-2.72,3.11-2.72,5.24,0,1.55.53,2.81,1.6,3.8,1.07.99,2.41,1.76,4.04,2.32,1.63.56,3.85,1.19,6.68,1.88,4.11,1.01,7.4,2.03,9.88,3.04,2.48,1.01,4.63,2.6,6.44,4.76,1.81,2.16,2.72,5.05,2.72,8.68,0,3.09-.81,5.92-2.44,8.48-1.63,2.56-4.09,4.6-7.4,6.12-3.31,1.52-7.33,2.28-12.08,2.28-4.11,0-8.09-.63-11.96-1.88Z"/>
      <path d="M606.58,108.02l-5.12,12.72h-10.96l23.84-56h10.56l23.92,56h-11.2l-5.12-12.72h-25.92ZM619.62,75.86l-9.6,23.52h19.04l-9.44-23.52Z"/>
      <path d="M704.58,92.1v22.32c-2.77,2.29-6.01,4.07-9.72,5.32-3.71,1.25-7.48,1.88-11.32,1.88-5.44,0-10.36-1.24-14.76-3.72-4.4-2.48-7.84-5.92-10.32-10.32-2.48-4.4-3.72-9.35-3.72-14.84s1.25-10.51,3.76-14.88c2.51-4.37,5.96-7.8,10.36-10.28,4.4-2.48,9.37-3.72,14.92-3.72,4.53,0,8.64.79,12.32,2.36,3.68,1.57,6.77,3.88,9.28,6.92l-6.8,6.72c-3.89-4.27-8.67-6.4-14.32-6.4-3.63,0-6.87.83-9.72,2.48-2.85,1.65-5.07,3.93-6.64,6.84-1.57,2.91-2.36,6.23-2.36,9.96s.79,6.99,2.36,9.92c1.57,2.93,3.77,5.21,6.6,6.84,2.83,1.63,6.05,2.44,9.68,2.44,4.05,0,7.57-.99,10.56-2.96v-16.88h9.84Z"/>
      <path d="M730.58,108.02l-5.12,12.72h-10.96l23.84-56h10.56l23.92,56h-11.2l-5.12-12.72h-25.92ZM743.62,75.86l-9.6,23.52h19.04l-9.44-23.52Z"/>
      <path d="M794.66,106.49v14.24h-10.64v-56h10.64v28.08l25.44-28.08h11.92l-22.32,25.04,23.68,30.96h-12.48l-18.16-23.12-8.08,8.88Z"/>
    </g>
  </g>
  <g>
    <rect class="cls-1" x="60.1" y="57.52" width="64.77" height="64.77"/>
    <path d="M92.49,0C41.41,0,0,41.41,0,92.49c0,40.37,25.86,74.69,61.92,87.31l30.57-87.31,30.57,87.31c36.06-12.62,61.92-46.94,61.92-87.31C184.98,41.41,143.57,0,92.49,0Z"/>
  </g>
</svg>